<svg xmlns="http://www.w3.org/2000/svg" width="48" height="48" viewBox="0 0 48 48" fill="none" stroke="currentColor"><path fill="none" d="M11.892 12.649V10.51c0-.3-.162-.449-.485-.449H9.933v3.037h1.474c.323 0 .485-.15.485-.45Zm0 4.87v-2.228c0-.156-.036-.264-.108-.324-.072-.072-.197-.108-.377-.108H9.933v3.11h1.474c.323 0 .485-.15.485-.45ZM7.4 8.299h4.745c1.521 0 2.282.66 2.282 1.978v2.012c0 .887-.27 1.444-.809 1.672.54.203.81.719.81 1.545v2.229c0 1.33-.762 1.995-2.283 1.995H7.399V8.3ZM16 8.3h2.552v11.43H16V8.3ZM22.439 8.3h2.408c1.51 0 2.264.659 2.264 1.977v7.458c0 1.33-.754 1.995-2.264 1.995H22.44c-1.522 0-2.282-.665-2.282-1.995v-7.458c0-1.318.76-1.977 2.282-1.977Zm2.102 9.093v-6.757c0-.3-.155-.45-.467-.45h-.862c-.324 0-.485.15-.485.45v6.757c0 .3.161.45.485.45h.862c.312 0 .467-.15.467-.45ZM30.263 19.7a1.55 1.55 0 0 1-1.55-1.55v-.1a1.55 1.55 0 1 1 3.1 0v.1a1.55 1.55 0 0 1-1.55 1.55ZM9.961 31.852h3.289v1.887H7.41v-11.43H9.96v9.543ZM14.132 22.31h2.552v11.429h-2.552v-11.43ZM23.14 22.31h2.355v11.429h-2.3l-2.498-6.847v6.847H18.36v-11.43h2.319l2.462 6.83v-6.83ZM34.684 22.31l-2.3 5.642 2.3 5.787h-2.767l-2.21-5.787 2.21-5.643h2.767ZM27.1 33.738v-11.43h2.552v11.43H27.1Z"/><path stroke-linejoin="round" d="M1 1h40v40H1V1Z"/></svg>